<svg width="84" height="51" viewBox="0 0 84 51" fill="none" xmlns="http://www.w3.org/2000/svg">
<path d="M46.6161 26.2322C44.6621 27.2811 42.4258 27.8765 40.0512 27.8765C32.3646 27.8765 26.1337 21.6456 26.1337 13.959C26.1337 6.27245 32.3646 0.0415039 40.0512 0.0415039C45.7231 0.0415039 50.6022 3.43563 52.7692 8.30615C47.3933 8.61943 43.1337 13.0815 43.1337 18.5335C43.1337 21.6006 44.4821 24.3508 46.6161 26.2305V26.2322Z" fill="url(#paint0_linear_1945_14924)"/>
<path d="M63.6249 18.5352C63.6249 24.1933 59.0382 28.7799 53.3784 28.7799C50.7874 28.7799 48.4214 27.8159 46.6161 26.2339C44.482 24.3542 43.1337 21.604 43.1337 18.537C43.1337 13.0849 47.3933 8.62284 52.7692 8.30956C52.9717 8.29572 53.1725 8.29053 53.3784 8.29053C59.0382 8.29053 63.6249 12.8789 63.6249 18.537V18.5352Z" fill="url(#paint1_linear_1945_14924)"/>
<g style="mix-blend-mode:multiply">
<path d="M16.815 38.8585H14.603V36.9338H21.1438V38.8585H18.9318V50.4013H16.815V38.8585Z" fill="#0F1340"/>
</g>
<path d="M53.1327 28.922H32.5343C25.2614 28.922 19.3437 23.006 19.3437 15.7331V7.90639C19.3437 5.71691 17.5627 3.93418 15.3715 3.93418C14.2949 3.93418 13.4226 3.06185 13.4226 1.98528C13.4226 0.90871 14.2949 0.036377 15.3715 0.036377C19.7124 0.036377 23.2433 3.56724 23.2433 7.90812V15.7349C23.2433 20.8581 27.4111 25.0242 32.5343 25.0242H53.1327C54.2093 25.0242 55.0816 25.8965 55.0816 26.9731C55.0816 28.0496 54.2093 28.922 53.1327 28.922Z" fill="#CAA34E"/>
<path d="M53.4997 28.9219C52.4231 28.9219 51.5508 28.0496 51.5508 26.973C51.5508 25.8965 52.4231 25.0241 53.4997 25.0241C57.1067 25.0241 60.0404 22.0887 60.0404 18.4834C60.0404 14.8781 57.1067 11.9426 53.4997 11.9426C53.0375 11.9426 52.5806 11.9911 52.1375 12.0863C51.1856 12.2905 50.2302 11.7609 49.8978 10.847C48.3851 6.68961 44.3956 3.8978 39.9682 3.8978C35.5407 3.8978 31.5823 6.67057 30.0558 10.7986C29.6819 11.8076 28.5603 12.3251 27.5513 11.9513C26.5422 11.5774 26.0247 10.4559 26.3986 9.4468C28.4876 3.79568 33.9415 0 39.9682 0C45.4964 0 50.5279 3.18297 52.9406 8.06041C53.1276 8.05003 53.3145 8.04484 53.5014 8.04484C59.2581 8.04484 63.9417 12.7284 63.9417 18.4851C63.9417 24.2418 59.2581 28.9254 53.5014 28.9254L53.4997 28.9219Z" fill="#CAA34E"/>
<path d="M46.6526 15.3715C46.2528 15.3715 45.8495 15.2486 45.5016 14.9942C44.6327 14.3572 44.4441 13.137 45.081 12.2699C45.5103 11.6831 46.007 11.1379 46.5557 10.6498C47.9074 9.44689 49.5517 8.61091 51.3137 8.23532C52.3677 8.01031 53.4028 8.68187 53.6278 9.73594C53.8528 10.7883 53.1812 11.825 52.1272 12.05C51.0264 12.2854 49.9965 12.8081 49.1484 13.5628C48.804 13.8691 48.4942 14.2101 48.2259 14.5753C47.8434 15.0963 47.2515 15.3732 46.6509 15.3732L46.6526 15.3715Z" fill="#CAA34E"/>
<g style="mix-blend-mode:multiply">
<path d="M0 47.2844V40.0496C0 37.9726 1.0783 36.7402 3.1172 36.7402C5.1561 36.7402 6.2344 37.9708 6.2344 40.0496V41.474H4.23357V39.9163C4.23357 39.0318 3.80953 38.6649 3.17605 38.6649C2.54257 38.6649 2.11852 39.0301 2.11852 39.9163V47.4384C2.11852 48.3229 2.54257 48.669 3.17605 48.669C3.80953 48.669 4.23357 48.3229 4.23357 47.4384V45.3805H6.2344V47.2844C6.2344 49.3631 5.1561 50.5937 3.1172 50.5937C1.0783 50.5937 0 49.3631 0 47.2844Z" fill="#0F1340"/>
</g>
<g style="mix-blend-mode:multiply">
<path d="M7.3891 47.2079V40.1272C7.3891 37.9723 8.52451 36.7417 10.6015 36.7417C12.6785 36.7417 13.8139 37.9723 13.8139 40.1272V47.2079C13.8139 49.3628 12.6785 50.5934 10.6015 50.5934C8.52451 50.5934 7.3891 49.3628 7.3891 47.2079ZM11.6988 47.3429V39.9939C11.6988 39.0316 11.2748 38.6664 10.6015 38.6664C9.92821 38.6664 9.50416 39.0316 9.50416 39.9939V47.3429C9.50416 48.3053 9.92821 48.6705 10.6015 48.6705C11.2748 48.6705 11.6988 48.3053 11.6988 47.3429Z" fill="#0F1340"/>
</g>
<g style="mix-blend-mode:multiply">
<path d="M24.0101 38.8585H21.7982V36.9338H28.3389V38.8585H26.1269V50.4013H24.0101V38.8585Z" fill="#0F1340"/>
</g>
<g style="mix-blend-mode:multiply">
<path d="M29.1281 47.2079V40.1272C29.1281 37.9723 30.2635 36.7417 32.3404 36.7417C34.4174 36.7417 35.5528 37.9723 35.5528 40.1272V47.2079C35.5528 49.3628 34.4174 50.5934 32.3404 50.5934C30.2635 50.5934 29.1281 49.3628 29.1281 47.2079ZM33.4378 47.3429V39.9939C33.4378 39.0316 33.0137 38.6664 32.3404 38.6664C31.6672 38.6664 31.2431 39.0316 31.2431 39.9939V47.3429C31.2431 48.3053 31.6672 48.6705 32.3404 48.6705C33.0137 48.6705 33.4378 48.3053 33.4378 47.3429Z" fill="#0F1340"/>
</g>
<g style="mix-blend-mode:multiply">
<path d="M36.9773 36.9338H39.6324L41.6903 44.9942H41.7284V36.9338H43.6132V50.4013H41.4393L38.9002 40.5703H38.8621V50.4013H36.9773V36.9338Z" fill="#0F1340"/>
</g>
<g style="mix-blend-mode:multiply">
<path d="M48.136 47.2844V40.0496C48.136 37.9726 49.2143 36.7402 51.2532 36.7402C53.2921 36.7402 54.3704 37.9708 54.3704 40.0496V41.474H52.3696V39.9163C52.3696 39.0318 51.9455 38.6649 51.312 38.6649C50.6786 38.6649 50.2545 39.0301 50.2545 39.9163V47.4384C50.2545 48.3229 50.6786 48.669 51.312 48.669C51.9455 48.669 52.3696 48.3229 52.3696 47.4384V45.3805H54.3704V47.2844C54.3704 49.3631 53.2921 50.5937 51.2532 50.5937C49.2143 50.5937 48.136 49.3631 48.136 47.2844Z" fill="#0F1340"/>
</g>
<g style="mix-blend-mode:multiply">
<path d="M55.6407 36.9338H57.7575V48.4767H61.2399V50.4013H55.6407V36.9338Z" fill="#0F1340"/>
</g>
<g style="mix-blend-mode:multiply">
<path d="M62.0275 47.2079V40.1272C62.0275 37.9723 63.1629 36.7417 65.2399 36.7417C67.3168 36.7417 68.4523 37.9723 68.4523 40.1272V47.2079C68.4523 49.3628 67.3168 50.5934 65.2399 50.5934C63.1629 50.5934 62.0275 49.3628 62.0275 47.2079ZM66.3372 47.3429V39.9939C66.3372 39.0316 65.9131 38.6664 65.2399 38.6664C64.5666 38.6664 64.1425 39.0316 64.1425 39.9939V47.3429C64.1425 48.3053 64.5666 48.6705 65.2399 48.6705C65.9131 48.6705 66.3372 48.3053 66.3372 47.3429Z" fill="#0F1340"/>
</g>
<g style="mix-blend-mode:multiply">
<path d="M69.8005 47.208V36.9338H71.9173V47.362C71.9173 48.3243 72.3206 48.6705 72.9939 48.6705C73.6672 48.6705 74.0722 48.3243 74.0722 47.362V36.9338H76.1111V47.208C76.1111 49.3628 75.0328 50.5934 72.9558 50.5934C70.8788 50.5934 69.8005 49.3628 69.8005 47.208Z" fill="#0F1340"/>
</g>
<g style="mix-blend-mode:multiply">
<path d="M77.6116 36.9338H80.8447C82.9615 36.9338 84 38.1073 84 40.2622V47.073C84 49.2278 82.9615 50.4013 80.8447 50.4013H77.6116V36.9338ZM80.8049 48.4784C81.4782 48.4784 81.8832 48.1322 81.8832 47.1699V40.167C81.8832 39.2047 81.4799 38.8585 80.8049 38.8585H79.7266V48.4784H80.8049Z" fill="#0F1340"/>
</g>
<defs>
<linearGradient id="paint0_linear_1945_14924" x1="37.2334" y1="12.2922" x2="52.7017" y2="21.45" gradientUnits="userSpaceOnUse">
<stop stop-color="#8B8B8B" stop-opacity="0"/>
<stop offset="1" stop-color="#CAA34E"/>
</linearGradient>
<linearGradient id="paint1_linear_1945_14924" x1="45.5136" y1="11.9702" x2="61.245" y2="25.1002" gradientUnits="userSpaceOnUse">
<stop stop-color="#8B8B8B" stop-opacity="0"/>
<stop offset="1" stop-color="#CAA34E"/>
</linearGradient>
</defs>
</svg>
