<svg id="cotton-logo" xmlns="http://www.w3.org/2000/svg" width="84" height="50.594" viewBox="0 0 84 50.594">
  <g id="Group_1" data-name="Group 1">
    <path id="Path_3" data-name="Path 3" d="M16.815,38.859H14.6V36.934h6.541v1.925H18.932V50.4H16.815Z" fill="#fff"/>
  </g>
  <path id="Path_4" data-name="Path 4" d="M53.133,28.922h-20.6A13.2,13.2,0,0,1,19.344,15.733V7.906a3.977,3.977,0,0,0-3.972-3.972,1.949,1.949,0,0,1,0-3.9,7.88,7.88,0,0,1,7.872,7.872v7.827a9.3,9.3,0,0,0,9.291,9.289h20.6a1.949,1.949,0,0,1,0,3.9Z" fill="#caa34e"/>
  <path id="Path_5" data-name="Path 5" d="M53.5,28.922a1.949,1.949,0,0,1,0-3.9,6.541,6.541,0,1,0-1.362-12.938,1.948,1.948,0,0,1-2.24-1.239A10.569,10.569,0,0,0,30.056,10.8,1.95,1.95,0,0,1,26.4,9.447,14.469,14.469,0,0,1,52.941,8.06q.281-.016.561-.016a10.44,10.44,0,1,1,0,20.881Z" fill="#caa34e"/>
  <path id="Path_6" data-name="Path 6" d="M46.653,15.372a1.95,1.95,0,0,1-1.572-3.1,10.462,10.462,0,0,1,6.233-4.035,1.95,1.95,0,1,1,.813,3.815,6.562,6.562,0,0,0-3.9,2.525,1.95,1.95,0,0,1-1.575.8Z" fill="#caa34e"/>
  <g id="Group_2" data-name="Group 2">
    <path id="Path_7" data-name="Path 7" d="M0,47.284V40.05c0-2.077,1.078-3.309,3.117-3.309s3.117,1.231,3.117,3.309v1.424h-2V39.916c0-.885-.424-1.251-1.058-1.251s-1.058.365-1.058,1.251v7.522c0,.884.424,1.231,1.058,1.231s1.058-.346,1.058-1.231V45.381h2v1.9c0,2.079-1.078,3.309-3.117,3.309S0,49.363,0,47.284Z" fill="#fff"/>
  </g>
  <g id="Group_3" data-name="Group 3">
    <path id="Path_8" data-name="Path 8" d="M7.389,47.208V40.127c0-2.155,1.135-3.386,3.212-3.386s3.212,1.231,3.212,3.386v7.081c0,2.155-1.135,3.385-3.212,3.385S7.389,49.363,7.389,47.208Zm4.31.135V39.994c0-.962-.424-1.327-1.1-1.327s-1.1.365-1.1,1.327v7.349c0,.962.424,1.328,1.1,1.328S11.7,48.305,11.7,47.343Z" fill="#fff"/>
  </g>
  <g id="Group_4" data-name="Group 4">
    <path id="Path_9" data-name="Path 9" d="M24.01,38.859H21.8V36.934h6.541v1.925H26.127V50.4H24.01Z" fill="#fff"/>
  </g>
  <g id="Group_5" data-name="Group 5">
    <path id="Path_10" data-name="Path 10" d="M29.128,47.208V40.127c0-2.155,1.135-3.386,3.212-3.386s3.212,1.231,3.212,3.386v7.081c0,2.155-1.135,3.385-3.212,3.385S29.128,49.363,29.128,47.208Zm4.31.135V39.994c0-.962-.424-1.327-1.1-1.327s-1.1.365-1.1,1.327v7.349c0,.962.424,1.328,1.1,1.328S33.438,48.305,33.438,47.343Z" fill="#fff"/>
  </g>
  <g id="Group_6" data-name="Group 6">
    <path id="Path_11" data-name="Path 11" d="M36.977,36.934h2.655l2.058,8.06h.038v-8.06h1.885V50.4H41.439L38.9,40.57h-.038V50.4H36.977Z" fill="#fff"/>
  </g>
  <g id="Group_7" data-name="Group 7">
    <path id="Path_12" data-name="Path 12" d="M48.136,47.284V40.05c0-2.077,1.078-3.309,3.117-3.309s3.117,1.231,3.117,3.309v1.424h-2V39.916c0-.885-.424-1.251-1.058-1.251s-1.057.365-1.057,1.251v7.522c0,.884.424,1.231,1.057,1.231s1.058-.346,1.058-1.231V45.381h2v1.9c0,2.079-1.078,3.309-3.117,3.309S48.136,49.363,48.136,47.284Z" fill="#fff"/>
  </g>
  <g id="Group_8" data-name="Group 8">
    <path id="Path_13" data-name="Path 13" d="M55.641,36.934h2.117V48.477H61.24V50.4h-5.6Z" fill="#fff"/>
  </g>
  <g id="Group_9" data-name="Group 9">
    <path id="Path_14" data-name="Path 14" d="M62.028,47.208V40.127c0-2.155,1.135-3.386,3.212-3.386s3.212,1.231,3.212,3.386v7.081c0,2.155-1.135,3.385-3.212,3.385S62.028,49.363,62.028,47.208Zm4.31.135V39.994c0-.962-.424-1.327-1.1-1.327s-1.1.365-1.1,1.327v7.349c0,.962.424,1.328,1.1,1.328S66.337,48.305,66.337,47.343Z" fill="#fff"/>
  </g>
  <g id="Group_10" data-name="Group 10">
    <path id="Path_15" data-name="Path 15" d="M69.8,47.208V36.934h2.117V47.362c0,.962.4,1.309,1.077,1.309s1.078-.346,1.078-1.309V36.934h2.039V47.208c0,2.155-1.078,3.385-3.155,3.385S69.8,49.363,69.8,47.208Z" fill="#fff"/>
  </g>
  <g id="Group_11" data-name="Group 11">
    <path id="Path_16" data-name="Path 16" d="M77.612,36.934h3.233c2.117,0,3.155,1.174,3.155,3.328v6.811c0,2.155-1.038,3.328-3.155,3.328H77.612ZM80.8,48.478c.673,0,1.078-.346,1.078-1.309v-7c0-.962-.4-1.308-1.078-1.308H79.727v9.62Z" fill="#fff"/>
  </g>
</svg>
